<svg width="32" height="28" viewBox="0 0 32 28" fill="none" xmlns="http://www.w3.org/2000/svg">
<path d="M28.2776 22.3015H2.83694C1.8161 22.3015 0.982422 21.5512 0.982422 20.6325V7.36749C0.982422 6.44874 1.8161 5.69843 2.83694 5.69843H28.2776C29.2984 5.69843 30.1321 6.44874 30.1321 7.36749V20.6325C30.1321 21.5512 29.2984 22.3015 28.2776 22.3015Z" fill="#FFC107"/>
<path d="M1.2959 8.16669H29.8144V10.5H1.2959V8.16669Z" fill="#424242"/>
<path d="M27.7574 16.2181H3.37159C3.1334 16.2181 2.93652 16.0431 2.93652 15.8265V13.9868C2.93652 13.7725 3.13097 13.5953 3.37159 13.5953H27.7574C27.9956 13.5953 28.1924 13.7703 28.1924 13.9868V15.8265C28.19 16.0409 27.9956 16.2181 27.7574 16.2181Z" fill="white"/>
</svg>
