<svg width="85" height="85" viewBox="0 0 85 85" fill="none" xmlns="http://www.w3.org/2000/svg">
<path d="M39.5388 1.06754L0 37.8776V37.9402H84.5002V37.8776L44.9614 1.06754C43.4346 -0.355848 41.0656 -0.355848 39.5388 1.06754Z" fill="#FF9800"/>
<path d="M0 37.9402H84.5002V84.4999H0V37.9402Z" fill="#FF9800"/>
<path d="M63.4291 22.1912V57.7336C63.4291 60.5328 60.1649 62.8055 56.1446 62.8055H26.5054C22.4851 62.8055 19.2209 60.5328 19.2209 57.7336V22.1912C19.2209 19.3921 22.4851 17.1194 26.5054 17.1194H56.1446C60.1649 17.1194 63.4291 19.3921 63.4291 22.1912Z" fill="white"/>
<path d="M63.4291 22.1912V57.7336C63.4291 60.5328 60.1649 62.8055 56.1446 62.8055H26.5054C22.4851 62.8055 19.2209 60.5328 19.2209 57.7336V22.1912C19.2209 19.3921 22.4851 17.1194 26.5054 17.1194H56.1446C60.1649 17.1194 63.4291 19.3921 63.4291 22.1912Z" stroke="#CCCCCC" stroke-width="1.21566"/>
<path d="M0.13258 37.9519L83.9204 84.1516C83.8723 84.3381 83.8781 84.3134 83.83 84.4998H0.18794C0.084501 84.4998 0 84.4153 0 84.3119V38.0306C0 37.9621 0.0728467 37.9184 0.13258 37.9519Z" fill="#FF9800"/>
<path d="M84.3675 37.9519L42.25 61.1763L83.9203 84.1516C83.8722 84.3367 83.878 84.3148 83.8299 84.4998H84.3122C84.4156 84.4998 84.5001 84.4153 84.5001 84.3119V38.0291C84.5001 37.9621 84.4273 37.9184 84.3675 37.9519Z" fill="#DD8400"/>
<g opacity="0.859552">
<path d="M42.2502 48.9521C36.7733 48.9521 32.3175 44.4963 32.3175 39.0194C32.3175 33.5424 36.7733 29.0867 42.2502 29.0867C47.7271 29.0867 52.1829 33.5424 52.1829 39.0194C52.1829 44.4963 47.7271 48.9521 42.2502 48.9521ZM50.206 31.0635C48.0809 28.9385 45.2555 27.7682 42.2502 27.7682C39.2449 27.7682 36.4194 28.9385 34.2944 31.0635C32.1693 33.1886 30.999 36.0141 30.999 39.0194C30.999 42.0247 32.1693 44.8501 34.2944 46.9751C36.4195 49.1002 39.2449 50.2706 42.2502 50.2706C45.2555 50.2706 48.0809 49.1002 50.206 46.9751C52.3311 44.8501 53.5014 42.0247 53.5014 39.0194C53.5014 36.0141 52.3311 33.1886 50.206 31.0635Z" fill="#54B7A6"/>
<path d="M47.6256 35.4093C47.3682 35.1519 46.9507 35.1519 46.6933 35.4093L40.8718 41.2309L37.8073 38.1664C37.5499 37.909 37.1324 37.909 36.875 38.1664C36.6175 38.4238 36.6175 38.8412 36.875 39.0987L40.4056 42.6293C40.5343 42.7581 40.703 42.8224 40.8717 42.8224C41.0404 42.8224 41.2092 42.758 41.3379 42.6293L47.6256 36.3416C47.883 36.0842 47.883 35.6667 47.6256 35.4093Z" fill="#54B7A6"/>
</g>
</svg>
