<svg width="200" height="225" viewBox="0 0 200 225" fill="none" xmlns="http://www.w3.org/2000/svg">
<path d="M0.545552 222.75C0.961208 222.979 1.56393 223.103 2.06272 223.167C3.8916 223.354 5.72047 223.478 7.57013 223.603C11.3318 223.831 15.1142 223.977 18.8967 224.06C26.4616 224.226 34.0474 224.205 41.6123 224.475C42.8593 224.517 44.0854 224.663 45.3116 224.641C61.1481 224.184 70.3133 224.184 82.2217 223.811C97.3101 223.333 113.313 220.444 79.728 218.344C72.5579 217.887 64.9721 217.867 57.7814 217.472C51.4218 217.119 45.0414 216.972 38.6612 216.972C33.1122 216.972 27.5632 217.057 22.0141 217.119C16.2158 217.202 9.50291 216.059 4.16174 219.051C3.68373 219.321 3.22652 219.612 2.74852 219.841C2.08348 220.153 1.37686 220.34 0.794936 220.839C-0.348117 221.774 -0.0987129 222.397 0.545552 222.75Z" fill="url(#paint0_linear_111_1390)"/>
<path opacity="0.56" d="M0.551412 222.75C0.967068 222.979 1.56979 223.103 2.06858 223.167C3.89746 223.354 5.72634 223.478 7.576 223.603C11.3377 223.831 15.1201 223.977 18.9026 224.06C26.4675 224.226 34.0533 224.205 41.6182 224.475C42.8651 224.517 44.0913 224.663 45.3175 224.641C61.154 224.184 70.3192 224.184 82.2276 223.811C97.316 223.333 113.319 220.444 79.7338 218.344C72.5638 217.887 64.978 217.867 57.7872 217.472C51.4277 217.119 45.0473 216.972 38.667 216.972C33.1181 216.972 27.569 217.057 22.02 217.119C16.2216 217.202 9.50876 216.059 4.16759 219.051C3.68959 219.321 3.23239 219.612 2.75438 219.841C2.08933 220.153 1.38271 220.34 0.800796 220.839C-0.342257 221.774 -0.0928536 222.397 0.551412 222.75Z" fill="url(#paint1_linear_111_1390)"/>
<path d="M18.5643 165.995C19.3124 151.177 17.7329 136.068 17.8784 121.146C17.3797 115.971 18.1902 110.713 20.227 105.85C20.3516 105.538 20.4971 105.247 20.7465 105.019C21.5362 104.291 22.8662 104.686 23.9054 105.06C33.9019 108.718 45.6858 107.845 54.7887 102.691C56.5967 105.123 57.0956 108.094 57.5528 110.983C58.2801 115.639 59.0491 120.294 59.257 124.97V124.991C59.2985 125.989 59.3193 127.006 59.2985 128.004C59.1738 133.844 57.9061 139.581 56.9084 145.337C56.2642 149.078 55.7032 152.86 55.6407 156.664C55.5992 159.781 56.098 162.608 55.3082 165.663C53.3754 173.165 53.3754 181.333 52.5649 188.981C51.692 197.19 50.8192 205.378 50.1125 213.609C50.0918 213.941 50.0502 214.253 50.0294 214.585C49.5722 214.69 42.4437 216.145 42.4437 214.523C41.8826 198.583 41.3007 182.643 40.7395 166.681C40.4902 159.968 41.0512 137.294 39.1393 130.914C38.3494 130.976 37.5597 131.059 36.77 131.122C32.4264 152.216 27.293 189.189 22.9494 210.284C22.5754 212.133 22.0974 214.149 20.7257 215.334C19.354 216.539 16.7769 216.185 16.3613 214.336C17.5874 198.25 17.7329 182.143 18.5643 165.995Z" fill="#F52D56"/>
<path d="M28.0074 19.3915C28.0074 13.3022 33.3277 8.3559 39.8743 8.3559C46.4209 8.3559 51.7414 13.3022 51.7414 19.3915C51.7414 20.4098 51.575 21.3867 51.3049 22.3219C51.3049 22.5713 51.284 22.7999 51.284 23.0701C51.3257 25.273 51.2217 27.4761 50.7852 29.6582C49.954 33.8771 47.7718 37.8051 43.6361 40.2159C42.2644 41.0056 40.6848 41.6291 39.0223 41.6084C36.7985 41.5876 34.7826 40.4445 33.2446 39.052C28.1737 34.3758 27.7164 27.3721 28.0905 20.7632C28.0489 20.2852 28.0074 19.8488 28.0074 19.3915Z" fill="#D1AC9D"/>
<path d="M45.2546 40.0272C44.6934 40.7754 44.1323 41.5236 43.3009 42.0223C42.3242 42.625 41.0772 42.7913 39.8718 42.812C38.4169 42.8329 36.8998 42.6458 35.7152 41.8976C34.8839 41.3573 32.8264 39.6947 32.3068 38.9049C30.5403 36.224 29.4181 34.3744 28.4829 31.4024C28.1919 30.4879 27.9425 29.5527 27.984 28.6175C28.3374 28.472 28.753 28.7005 28.9192 29.0124C29.0856 29.3241 29.0647 29.6774 29.0856 30.0307C29.1479 31.8596 30.0831 33.5845 31.0183 35.2056C31.8497 36.6396 33.9695 37.9073 35.2581 39.0297C36.5466 40.1727 38.3339 40.9624 40.142 40.8586C40.3706 40.8378 40.62 40.8169 40.8278 40.7131C41.2643 40.4844 41.4513 40.0064 41.576 39.57C41.7007 39.1336 41.8669 38.6555 42.2825 38.4062C42.6982 38.1567 43.4672 38.3854 43.4049 38.8426C43.3632 39.1335 43.0307 39.3414 43.0307 39.6324C43.0307 39.9649 43.5087 40.1727 43.8621 40.0688C44.2154 39.9856 44.4856 39.6947 44.7141 39.4452C45.2753 38.8219 45.8573 38.1775 46.4183 37.554C46.6678 37.2838 46.938 37.0761 47.2705 37.2215C46.8548 38.1775 45.9403 39.1335 45.2546 40.0272Z" fill="white"/>
<path d="M42.2232 214.75C45.2783 214.521 48.3749 214.646 51.3885 215.104C53.7161 216.642 56.2724 217.929 58.9741 218.886C59.764 219.176 60.5745 219.446 61.1564 219.987C61.7383 220.527 61.9669 221.463 61.4265 222.024C60.9485 222.522 60.1173 222.585 59.3898 222.585C53.7369 222.647 48.084 222.211 42.5142 221.318C42.1817 221.254 41.8284 221.192 41.579 220.984C41.392 220.818 41.2881 220.569 41.2257 220.341C40.6646 218.45 41.0387 216.371 42.2232 214.75Z" fill="#3D322B"/>
<path d="M16.0946 213.04C18.838 213.331 21.5396 213.893 24.1167 214.765C25.8625 216.49 27.8785 218.007 30.0606 219.275C30.7049 219.649 31.37 220.003 31.7648 220.585C32.1597 221.166 32.2013 221.998 31.5986 222.434C31.079 222.809 30.3308 222.725 29.6866 222.621C24.6779 221.79 19.7732 220.543 15.0555 218.881C14.7645 218.777 14.4735 218.673 14.3072 218.444C14.1619 218.256 14.141 218.049 14.1202 217.82C13.9955 216.075 14.723 214.288 16.0946 213.04Z" fill="#3D322B"/>
<path d="M50.4477 122.532C50.801 121.743 51.2789 121.015 51.8192 120.309C52.5674 119.311 53.4196 118.397 54.0638 117.357C54.5003 116.651 54.8536 115.882 55.5602 115.362C55.8512 115.134 56.246 114.967 56.6409 115.03C56.9942 115.092 57.2644 115.341 57.4306 115.632C57.5761 115.923 57.6386 116.235 57.6593 116.547L57.6801 117.357C57.0357 119.997 56.4124 122.636 55.768 125.255C55.6433 125.774 55.477 126.357 54.9575 126.647C54.5003 126.897 53.9183 126.834 53.3988 126.751C52.3181 126.585 51.1542 126.377 50.4892 125.587C49.7618 124.736 49.9905 123.53 50.4477 122.532Z" fill="#D1AC9D"/>
<path d="M55.7697 113.721C55.4787 115.197 55.3748 117.15 56.5179 117.628C57.7024 118.106 58.9078 116.506 59.6352 115.134C61.2355 112.121 62.8358 109.107 64.4568 106.114C67.5743 100.254 70.754 94.2475 72.1881 87.7009C72.77 85.0407 72.957 81.9441 71.4606 80.1567C70.5254 79.0345 69.1122 78.6604 67.7405 78.411C60.9446 77.1849 61.3602 84.9368 60.1964 90.9639C58.7208 98.5495 57.2452 106.135 55.7697 113.721Z" fill="#54B7A6"/>
<path d="M46.4162 115.181C47.0606 117.239 47.8711 119.255 48.8686 121.104C50.7182 124.471 54.958 125.781 58.9483 125.24C58.9898 125.531 58.886 126.009 58.886 126.196C58.8028 127.193 58.6157 128.191 58.3248 129.168C58.117 129.833 57.8468 130.519 57.2233 130.914C56.5166 131.371 55.5607 131.35 54.6878 131.267C53.1706 131.142 51.6327 130.914 50.2195 130.436C48.2867 129.77 46.5824 128.648 45.0654 127.402C43.9223 126.466 42.8624 125.427 42.1351 124.2C41.4284 122.995 41.0959 121.645 40.8672 120.294C40.5763 118.61 40.4724 116.885 40.7425 115.202C42.5091 115.223 44.4627 115.223 46.4162 115.181Z" fill="#F52D56"/>
<path d="M57.8249 125.129C57.0352 125.254 56.2247 125.254 55.4348 125.15C53.8761 124.963 52.359 124.36 51.1952 123.404C50.1976 122.594 49.4703 121.555 48.8259 120.474C47.8284 118.79 47.0802 117.003 46.5605 115.154C46.7269 115.154 46.9139 115.154 47.0802 115.133C47.3504 116.047 47.6414 116.941 47.9531 117.834C48.7428 119.996 50.1768 122.594 52.4629 123.882C54.375 124.984 56.7027 124.775 58.9471 124.692C59.2589 124.673 59.3628 125.15 59.0303 125.192C59.0095 125.192 58.9886 125.192 58.9679 125.192C58.9471 125.109 58.9264 125.026 58.8848 124.984C58.6563 124.859 58.0743 125.088 57.8249 125.129Z" fill="#4B5B6B"/>
<path d="M48.8712 121.104C47.8529 119.255 47.0425 117.259 46.4189 115.181C46.4605 115.181 46.502 115.181 46.5643 115.181C47.084 117.031 47.8322 118.818 48.8297 120.502C49.4532 121.561 50.2014 122.601 51.199 123.432C52.3628 124.388 53.8799 124.991 55.4386 125.177C56.2283 125.281 57.0388 125.261 57.8287 125.157C58.078 125.115 58.6599 124.887 58.8677 125.053C58.9094 125.094 58.9509 125.178 58.9509 125.261C54.9814 125.76 50.7209 124.471 48.8712 121.104Z" fill="#F52D56"/>
<path d="M15.5158 105.369C15.5574 96.5155 15.5782 87.6829 15.6197 78.8294C15.6405 71.3683 17.5318 63.4709 18.7371 56.1138C19.4022 52.0611 20.192 50.6479 22.2286 47.0525C22.5196 46.533 22.5611 46.2004 25.2629 45.4106C25.8449 45.2444 27.2373 44.517 27.9439 44.6417C31.4562 45.1821 35.0309 43.9767 38.5431 44.517C42.2633 45.0782 48.498 43.374 51.3869 45.6809C55.2941 48.7775 55.5642 56.1761 56.1878 60.9978C57.019 67.5027 59.0142 74.1117 59.3674 80.679C59.6792 86.4358 59.8455 92.1927 59.9702 97.9495C60.0326 100.942 61.2379 111.396 58.266 113.391C56.5203 114.555 51.8649 115.054 47.0641 115.178C46.8978 115.178 46.7108 115.199 46.5446 115.199C46.5029 115.199 46.4614 115.199 46.3991 115.199C44.4455 115.241 42.4918 115.241 40.7253 115.199C38.1067 115.158 35.9037 115.033 34.6983 114.929C29.1078 114.472 23.5796 113.433 18.0929 112.29C17.1161 112.082 16.0354 111.812 15.5158 111.001C15.1418 110.419 15.5158 106.055 15.5158 105.369Z" fill="#54B7A6"/>
<path d="M55.6276 49.1914C54.1935 47.5703 52.5725 46.0116 50.6812 45.4713C48.79 44.9309 46.6078 45.6999 45.8596 47.7367C45.1946 49.6071 45.8804 51.8516 46.6493 53.7844C48.6237 58.7307 51.1176 63.386 53.6115 68.0205C56.251 72.9045 58.8696 77.7885 61.509 82.6725C62.2988 84.1481 63.1717 85.7068 64.4602 86.5173C66.7255 87.9512 71.9212 86.1432 72.3161 83.0257C72.6694 80.2201 68.9284 73.3202 67.8685 70.6393C64.7719 62.8457 60.9688 55.2392 55.6276 49.1914Z" fill="#54B7A6"/>
<path d="M39.9797 45.9288C39.7926 45.7003 39.6055 45.4093 39.7095 45.1391C39.7926 44.9313 40.042 44.8274 40.2498 44.7443C41.2474 44.3286 42.2657 43.9544 43.3049 43.6219C43.6374 43.5181 44.0323 43.4142 44.344 43.5804C44.5103 43.6636 44.6142 43.8091 44.7181 43.9337C45.3623 44.7858 46.0067 45.6171 46.6509 46.4692C46.7548 46.594 46.8587 46.7394 46.8587 46.9057C46.8587 47.0927 46.6925 47.259 46.547 47.3837C45.8612 48.0487 45.1962 48.7553 44.5935 49.4828C44.157 50.0023 43.6374 51.2493 42.7853 50.709C42.1202 50.2933 41.8917 49.0256 41.5592 48.3812C41.1227 47.5499 40.5823 46.7187 39.9797 45.9288Z" fill="#ABBCC4"/>
<path d="M36.4826 49.1559C36.3579 49.6962 36.2956 50.2367 36.0878 50.7562C36.0669 50.8186 36.0254 50.9017 35.9631 50.9432C35.7552 51.0887 35.4851 50.8601 35.3604 50.6731C34.1965 49.052 32.8248 47.5349 31.2661 46.1841C30.9544 45.9139 30.6426 45.6437 30.4556 45.3112C30.2686 44.9579 30.2686 44.5214 30.5596 44.2304C30.7466 44.0433 31.0376 43.9603 31.3077 43.8771C31.8896 43.7108 32.4923 43.5446 33.0743 43.3783C33.4275 43.2745 33.8017 43.1705 34.1757 43.212C34.5082 43.2536 34.82 43.42 35.111 43.5862C35.8176 44.0018 37.8127 44.8539 37.875 45.6852C37.9166 46.1632 37.2931 46.8698 37.1061 47.3271C36.8151 47.909 36.6281 48.5325 36.4826 49.1559Z" fill="#ABBCC4"/>
<path d="M41.3208 48.8228C41.3415 48.7396 41.3623 48.6774 41.3208 48.5943C41.3 48.5319 41.2376 48.4903 41.1545 48.4488C40.3024 47.9084 39.2009 47.6798 38.1825 47.8253C38.0579 47.8461 37.9332 47.8668 37.8292 47.9292C37.7045 48.0123 37.6422 48.1163 37.6006 48.2409C37.372 48.7605 37.4135 49.3632 37.6006 49.9035C37.7877 50.4439 38.1202 50.9219 38.4527 51.3999C38.4942 51.4622 38.5359 51.5246 38.619 51.5662C38.6814 51.6077 38.7644 51.6077 38.8476 51.6077C40.2608 51.5246 41.0298 49.8412 41.3208 48.8228Z" fill="white"/>
<path d="M41.9679 66.3854C43.3602 74.262 44.7528 82.1803 45.3138 90.1401C45.3555 90.6804 45.3762 91.2208 45.1891 91.7196C45.0229 92.156 44.7111 92.5093 44.3994 92.8625C43.2148 94.2134 42.0301 95.5644 40.8455 96.9153C40.6377 94.1304 36.7513 92.6547 35.8161 89.9738C35.5043 89.0594 35.546 88.0825 35.6083 87.1265C36.024 80.0604 36.4395 72.9943 36.8552 65.9281C37.0839 62.0833 36.4395 55.4329 38.7881 52.1491C40.3883 52.5856 40.3675 57.1993 40.617 58.571C41.0533 61.1896 41.5105 63.7875 41.9679 66.3854Z" fill="white"/>
<path d="M6.95306 81.073C4.33444 89.012 2.36009 97.1174 1.05077 105.306C0.926075 106.075 0.822154 106.927 1.23781 107.613C1.77817 108.465 2.94203 108.797 4.00195 109.067C10.2991 110.626 16.5963 112.185 22.9143 113.744C25.1796 114.305 27.4865 114.866 29.8349 114.97C30.2506 114.991 30.7078 114.991 31.0819 114.783C31.4975 114.554 31.7053 114.138 31.8717 113.744C33.8876 109.358 35.6749 104.89 37.192 100.359C38.0442 97.824 38.8131 95.2677 39.5404 92.6906C40.351 89.7602 39.6859 88.3055 36.527 87.7028C33.2434 87.0584 30.0219 85.9777 26.7798 85.1672C25.1173 84.7517 7.14012 80.5119 6.95306 81.073Z" fill="#E2E2E2"/>
<path d="M17.8508 95.4102C17.8086 95.3681 17.7666 95.326 17.7246 95.284C17.8088 95.3051 17.8508 95.3471 17.8508 95.4102Z" fill="white"/>
<path d="M16.8692 98.9513C18.3656 99.1799 19.7996 99.554 21.2337 100.053C21.5038 100.157 21.8779 99.8865 21.8362 99.5955C21.6285 97.5172 21.4207 95.4597 21.2128 93.3814C21.192 93.1944 21.0882 93.0697 20.9427 92.9866C20.7348 92.6333 20.1528 92.5709 20.0697 93.0697C19.9243 93.9634 18.8644 94.9195 18.3448 95.6468C17.7421 96.4989 17.1602 97.3926 16.5575 98.2654C16.4328 98.4733 16.5783 98.9098 16.8692 98.9513ZM20.3815 94.6076C20.527 96.0417 20.6725 97.4757 20.818 98.9096C19.8203 98.5979 18.8228 98.3486 17.8044 98.1616C18.3448 97.351 18.9059 96.5404 19.4671 95.7507C19.7373 95.3767 20.0906 95.0025 20.3815 94.6076Z" fill="white"/>
<path d="M10.9437 110.521C11.0477 109.648 11.4217 108.838 11.6919 108.006C11.7958 107.674 11.8997 107.321 12.1491 107.03C12.5024 106.635 13.1259 106.427 13.6871 106.552C14.2483 106.676 14.7055 107.092 14.8093 107.591L14.934 108.422C14.6846 109.066 14.7886 109.773 15.1003 110.396C15.412 111.02 15.9315 111.539 16.5135 111.955C16.846 112.205 17.2409 112.516 17.1162 112.87C17.0331 113.14 16.7005 113.285 16.4097 113.368C15.7445 113.555 15.0587 113.68 14.3729 113.68C13.4169 113.701 12.3777 113.514 11.7127 112.911C11.0269 112.329 10.8398 111.394 10.9437 110.521Z" fill="#D1AC9D"/>
<path d="M18.4876 91.9892C21.6674 79.2703 25.1795 66.6135 28.962 54.0399C29.3985 52.5643 29.8557 51.068 29.7102 49.5509C29.5648 48.0337 28.7126 46.4958 27.1539 45.8308C25.325 45.0617 23.0389 45.7891 21.6465 47.0985C20.254 48.4078 19.5475 50.1536 18.924 51.8785C13.1879 67.5279 10.8602 84.1541 12.1072 100.573C12.2319 102.256 12.3982 104.002 11.837 105.623C11.5461 106.475 11.0889 107.514 11.7955 108.158C12.6267 108.927 14.5596 108.886 15.2038 108.117C16.0352 107.098 15.8273 103.939 16.0767 102.651C16.7417 99.097 17.6147 95.5432 18.4876 91.9892Z" fill="#54B7A6"/>
<path d="M49.1632 22.1176C47.2512 20.8499 44.217 20.8084 42.5128 22.4501C42.4713 22.471 42.4505 22.5125 42.4505 22.5541C41.3906 22.5333 40.289 22.5541 39.229 22.4294C38.5432 20.7459 36.652 19.6029 34.8855 19.9355C32.3708 19.8107 29.7937 20.9746 28.6923 23.427C27.3414 26.4404 31.5187 28.6019 34.0127 28.7058C36.9014 28.8305 39.9149 26.3574 39.4577 23.2607C39.4577 23.2192 39.4369 23.1983 39.4369 23.1568C40.4969 23.1152 41.5776 23.1983 42.6375 23.24C42.596 26.6275 48.1448 30.1397 50.4102 26.9393C51.5948 25.2974 50.7011 23.136 49.1632 22.1176ZM33.2852 27.7913C30.7497 27.3133 28.0271 25.1104 30.2094 22.5956C31.0822 21.5981 32.2876 20.9539 33.5762 20.7252C33.597 20.9746 33.8256 21.2032 34.1373 21.0577C36.3819 20.0602 39.1667 21.9929 38.6057 24.5492C38.0653 26.9601 35.5714 28.2278 33.2852 27.7913ZM49.8075 26.3158C48.145 29.0592 42.0971 25.5052 43.4688 22.7827V22.762C44.7157 22.2008 45.9419 21.8683 47.3551 22.2216C49.0801 22.6788 50.9298 24.4454 49.8075 26.3158Z" fill="#414141"/>
<path d="M135.929 23.8379C136.386 25.3343 136.844 26.8307 137.135 28.3894C137.259 29.0336 138.154 28.8258 138.112 28.2023C137.986 26.6435 137.903 25.0641 137.654 23.5261C137.467 22.4039 135.597 22.7987 135.929 23.8379Z" fill="#666666"/>
<path d="M128.819 28.5579C129.443 29.1606 130.17 29.597 130.898 30.0543C131.542 30.4492 132.165 30.9064 132.914 31.0519C133.267 31.1142 133.537 30.657 133.371 30.366C133.059 29.7841 132.519 29.3685 132.02 28.9528C131.355 28.3916 130.691 27.7474 129.9 27.3317C129.153 26.9369 128.113 27.8513 128.819 28.5579Z" fill="#666666"/>
<path d="M105.872 219.661C106.287 219.89 106.849 219.993 107.306 220.035C109.051 220.18 110.797 220.263 112.543 220.346C116.139 220.492 119.734 220.533 123.329 220.533C130.52 220.533 137.732 220.326 144.923 220.43C146.107 220.45 147.271 220.575 148.456 220.492C163.523 219.682 172.232 219.452 183.537 218.809C197.898 217.977 213.048 214.714 181.084 213.406C174.247 213.114 167.056 213.259 160.198 213.031C154.13 212.823 148.061 212.823 141.992 212.968C136.713 213.093 131.435 213.301 126.155 213.508C120.648 213.717 114.226 212.74 109.218 215.857C108.781 216.127 108.345 216.439 107.888 216.689C107.264 217.021 106.578 217.229 106.038 217.728C104.999 218.705 105.248 219.328 105.872 219.661Z" fill="url(#paint2_linear_111_1390)"/>
<path opacity="0.56" d="M105.878 219.661C106.293 219.89 106.854 219.993 107.312 220.035C109.057 220.18 110.803 220.263 112.549 220.346C116.144 220.492 119.74 220.533 123.335 220.533C130.526 220.533 137.737 220.326 144.928 220.43C146.113 220.45 147.277 220.575 148.461 220.492C163.529 219.682 172.237 219.452 183.543 218.809C197.904 217.977 213.055 214.714 181.091 213.406C174.253 213.114 167.063 213.259 160.204 213.031C154.135 212.823 148.066 212.823 141.998 212.968C136.719 213.093 131.44 213.301 126.162 213.508C120.654 213.717 114.232 212.74 109.224 215.857C108.787 216.127 108.351 216.439 107.894 216.689C107.27 217.021 106.584 217.229 106.044 217.728C105.005 218.705 105.254 219.328 105.878 219.661Z" fill="url(#paint3_linear_111_1390)"/>
<path d="M117.739 39.4071C117.739 39.4071 108.574 41.4022 96.6656 79.497C96.6656 79.497 94.7119 92.902 110.154 112.292V101.423C110.154 97.3286 107.743 92.3408 106.974 88.2674C105.665 81.3259 108.242 77.8553 111.276 71.8697C113.458 67.5677 115.64 63.2449 117.739 58.9013C117.739 58.9221 122.228 46.4317 117.739 39.4071Z" fill="#736357"/>
<path d="M75.1923 38.6207C73.7376 39.2649 73.5921 41.0523 74.9015 42.0083C83.5886 48.3677 90.9872 54.1246 97.2844 59.3826C98.0534 60.0269 98.9678 60.6919 100.007 60.4009C100.672 60.2139 101.233 59.6736 101.732 59.154L108.32 52.4828C108.944 51.8385 109.006 50.7993 108.445 50.1966C103.062 44.5852 96.4947 38.787 88.4934 32.7807C87.7867 32.2611 86.8515 32.1988 86.1657 32.656C82.8821 34.8382 79.2035 36.8333 75.1923 38.6207Z" fill="#666666"/>
<path d="M80.4755 40.1822C79.5195 40.6394 79.4155 41.8449 80.2677 42.4891C86.066 46.9158 91.1994 51.0724 95.7509 55.0004C96.3119 55.4991 96.9978 56.0188 97.7666 55.8316C98.2655 55.7069 98.6813 55.3329 99.0553 54.9588L104.022 50.1581C104.5 49.7007 104.542 48.911 104.105 48.4745C99.9905 44.318 95.148 40.1614 89.4743 36.0257C88.9963 35.6724 88.3522 35.6516 87.8742 35.9841C85.6088 37.522 83.1356 38.9353 80.4755 40.1822Z" fill="white"/>
<path d="M88.4731 37.6808C88.3068 37.577 88.1198 37.4523 87.912 37.473C87.725 37.473 87.5586 37.577 87.4131 37.6808C87.0806 37.8887 86.7482 38.1173 86.4364 38.3667C86.1247 38.6368 85.8337 38.9278 85.5012 39.1772C85.2519 39.385 84.9817 39.5512 84.7115 39.7175C84.1087 40.1124 83.506 40.4866 82.8825 40.8814C82.5085 41.1099 82.2175 41.2346 81.9681 41.5256C81.8849 41.6296 81.8019 41.7543 81.7188 41.9205C82.1344 42.357 82.5916 42.7518 83.0696 43.126C83.3398 43.3337 83.6931 43.8325 84.0672 43.7494C84.2958 43.7078 84.5244 43.4169 84.6907 43.2507C84.7322 43.209 84.7737 43.1883 84.8154 43.1467C84.8985 43.5 84.9816 43.8533 85.0647 44.1859C85.1894 43.7494 85.2517 43.2922 85.2934 42.835C85.2934 42.7935 85.2934 42.731 85.3142 42.6895C85.3765 42.6271 85.4596 42.5648 85.5219 42.5025C86.3117 41.8166 87.1014 41.1099 87.8705 40.4242C88.1822 40.154 88.4523 39.9254 88.8055 39.7175C88.9303 39.6552 89.8239 38.7615 89.8447 38.7615C89.4082 38.4082 88.9719 37.9926 88.4731 37.6808Z" fill="#CCCCCC"/>
<path d="M96.7048 43.6247C96.4761 43.604 96.2475 43.5416 96.0396 43.4793C96.2891 43.1883 96.5593 42.9181 96.8086 42.6064C96.4553 42.3778 96.0812 42.1284 95.7279 41.8997C95.6863 41.8582 95.624 41.8374 95.5616 41.8374C95.437 41.8374 95.3331 41.9413 95.2499 42.0452C94.6057 42.7726 93.6912 43.3753 93.047 44.1028C92.5273 44.7055 92.382 44.8717 91.6338 45.7654C91.9247 45.9732 92.6313 46.6382 92.9223 46.8461C93.0054 46.5759 93.234 46.3681 93.4419 46.181C94.1901 45.516 94.8966 44.7885 95.5825 44.0403C95.7486 44.0403 95.915 44.0196 96.0812 43.978C96.3098 43.895 96.5177 43.791 96.7048 43.6247Z" fill="#B8CDD8"/>
<path d="M90.1762 42.2755C89.9475 42.0885 89.7188 41.9221 89.4903 41.7351C89.4487 41.7143 89.428 41.6728 89.3865 41.6728C89.324 41.6728 89.2617 41.7143 89.2201 41.756C88.0355 42.6912 86.8094 43.8134 85.6455 44.8109C85.8325 44.9772 86.4976 45.4968 86.6847 45.6423C86.7262 45.6838 86.7884 45.7254 86.8509 45.7254C86.9547 45.7254 87.038 45.6423 87.1004 45.5591C87.1419 45.4968 87.1834 45.4553 87.2457 45.4136C87.3288 45.7254 87.3912 46.0371 87.4744 46.3489C87.5991 45.9124 87.6614 45.4761 87.7029 45.0188C87.7029 44.9772 87.7031 44.9357 87.7238 44.8734C88.5136 43.9589 89.3241 43.086 90.1762 42.2755Z" fill="#CCCCCC"/>
<path d="M95.5885 48.4062C95.3183 48.1775 95.0483 47.9488 94.7781 47.6995C94.7366 47.6787 94.6948 47.6371 94.6533 47.6371C94.6118 47.6371 94.5701 47.6787 94.5494 47.6995C93.9883 48.1775 93.4271 48.6555 92.866 49.1542C92.4504 49.5076 92.0348 49.8817 91.7646 50.3804C92.0555 50.6714 92.3465 50.9208 92.6582 51.1494C92.6999 51.191 92.7414 51.2118 92.8037 51.2118C92.866 51.2118 92.9284 51.191 92.9699 51.1494C93.1154 51.0663 93.2401 50.9416 93.3648 50.8169C93.4687 50.9624 93.5519 51.0871 93.6557 51.2326C93.6766 51.2741 93.7181 51.3156 93.7596 51.2949C93.7804 50.9831 93.8012 50.6714 93.8221 50.3597C94.4456 49.757 95.0481 49.1127 95.5885 48.4062Z" fill="#CCCCCC"/>
<path d="M101.322 47.9278C101.572 47.5953 101.821 47.2421 102.05 46.9095C101.634 46.6393 101.198 46.3899 100.782 46.1198C100.74 46.0991 100.699 46.0782 100.657 46.0782C100.616 46.0782 100.553 46.1198 100.512 46.1614C99.0777 47.3875 98.1009 49.2164 96.75 50.5881C96.7085 50.6296 96.667 50.6712 96.667 50.7336C96.667 50.7751 96.6878 50.8167 96.7086 50.8374C97.0411 51.3571 97.4152 51.8351 97.81 52.2715C98.5789 51.4609 99.3272 50.6296 100.055 49.7776C100.325 49.4659 100.616 49.1125 100.74 48.6968C101.052 48.7384 101.343 48.7384 101.655 48.676C101.696 48.5307 101.572 48.4267 101.447 48.3643C101.322 48.302 101.198 48.2188 101.239 48.0526C101.26 48.011 101.281 47.9695 101.322 47.9278Z" fill="#B8CDD8"/>
<path d="M154.689 161.775C153.858 146.686 155.604 131.286 155.438 116.114C155.978 110.856 155.104 105.495 152.86 100.548C152.715 100.236 152.57 99.9247 152.3 99.696C151.447 98.9687 149.971 99.3635 148.828 99.7377C137.896 103.458 125.012 102.585 115.056 97.3268C113.082 99.8 112.521 102.834 112.043 105.785C111.253 110.524 110.401 115.262 110.193 120.022V120.042C110.152 121.061 110.131 122.1 110.152 123.118C110.297 129.062 111.669 134.902 112.77 140.763C113.477 144.586 114.1 148.432 114.163 152.297C114.204 155.457 113.664 158.365 114.537 161.462C116.657 169.089 116.657 177.424 117.55 185.217C118.506 193.572 119.442 201.927 120.231 210.302C120.252 210.634 120.294 210.967 120.315 211.3C120.834 211.404 128.607 212.9 128.607 211.237C129.231 195.006 129.854 178.754 130.477 162.522C130.748 155.685 130.145 132.596 132.243 126.09C133.117 126.152 133.969 126.235 134.841 126.299C139.58 147.787 145.212 185.425 149.971 206.914C150.387 208.805 150.907 210.843 152.403 212.068C153.921 213.295 156.725 212.941 157.183 211.05C155.749 194.611 155.583 178.192 154.689 161.775Z" fill="#54B7A6"/>
<path d="M140.81 14.8462C140.81 9.2556 135.947 4.72498 129.941 4.72498C123.934 4.72498 119.071 9.2556 119.071 14.8462C119.071 15.7814 119.217 16.6751 119.466 17.5271C119.466 17.7558 119.487 17.9636 119.487 18.213C119.445 20.2289 119.549 22.2656 119.944 24.24C120.713 28.1056 122.708 31.7011 126.491 33.904C127.759 34.6314 129.193 35.1925 130.71 35.1925C132.746 35.1717 134.596 34.1326 136.009 32.8441C140.664 28.5628 141.06 22.1409 140.727 16.0931C140.768 15.6775 140.81 15.2827 140.81 14.8462Z" fill="#C8AE9A"/>
<path d="M129.151 211.304C126.905 211.138 124.62 211.221 122.396 211.553C120.671 212.695 118.8 213.631 116.805 214.338C116.223 214.546 115.62 214.753 115.184 215.148C114.747 215.543 114.581 216.229 114.976 216.644C115.329 217.018 115.932 217.06 116.493 217.06C120.671 217.101 124.827 216.79 128.942 216.125C129.192 216.084 129.441 216.042 129.628 215.876C129.774 215.75 129.836 215.584 129.898 215.397C130.293 214.046 130.023 212.508 129.151 211.304Z" fill="#3D322B"/>
<path d="M155.965 212.402C153.95 212.61 151.955 213.046 150.043 213.67C148.754 214.937 147.279 216.059 145.658 216.995C145.179 217.265 144.701 217.535 144.39 217.95C144.099 218.367 144.078 218.99 144.514 219.301C144.888 219.571 145.45 219.509 145.928 219.426C149.606 218.823 153.223 217.888 156.714 216.661C156.922 216.578 157.15 216.495 157.275 216.35C157.379 216.225 157.399 216.059 157.42 215.893C157.524 214.646 156.984 213.336 155.965 212.402Z" fill="#3D322B"/>
<path d="M155.892 109.575C155.85 99.1831 155.809 88.7918 155.788 78.4004C155.746 69.6508 153.772 60.361 152.463 51.6945C151.757 46.9352 150.904 45.2726 148.742 41.033C148.431 40.4303 148.389 40.0146 145.521 39.1001C144.898 38.8922 143.422 38.061 142.654 38.1857C138.912 38.8092 135.11 37.396 131.389 38.0402C127.441 38.7052 120.811 36.7101 117.735 39.4119C113.578 43.0696 113.287 51.736 112.622 57.4097C111.728 65.0578 109.609 72.8306 109.235 80.5202C108.902 87.2746 108.736 94.0498 108.611 100.804C108.549 104.337 107.26 116.599 110.419 118.948C112.269 120.319 117.236 120.88 122.328 121.067C122.515 121.067 122.702 121.088 122.889 121.088C122.93 121.088 122.993 121.088 123.034 121.088C125.112 121.151 127.19 121.13 129.082 121.088C131.866 121.026 134.215 120.901 135.483 120.776C141.427 120.236 147.309 119.031 153.148 117.68C154.188 117.451 155.331 117.119 155.892 116.183C156.286 115.518 155.892 110.385 155.892 109.575Z" fill="#736357"/>
<path d="M135.818 47.4681C136.046 45.847 137.106 44.5585 138.499 43.7272C138.81 42.1477 139.101 40.5682 139.414 38.9888C139.455 38.9264 139.497 38.8848 139.516 38.8225C139.621 38.6354 139.663 38.4276 139.642 38.2198C139.267 38.1366 138.893 38.0743 138.54 38.0119C133.864 38.9471 129.063 38.968 124.304 37.7418C124.367 38.1159 124.387 38.5108 124.346 38.9056C121.81 66.1934 120.771 93.585 121.789 120.977C122.475 120.748 123.223 120.644 124.076 120.644C126.673 120.686 129.375 121.018 132.077 121.247C125.676 97.1597 132.409 71.8879 135.818 47.4681ZM137.938 40.5267C138.063 40.5267 138.166 40.5059 138.291 40.5059C138.104 40.9839 137.917 41.4619 137.75 41.9399C137.793 41.4827 137.876 41.0047 137.938 40.5267Z" fill="#E8E8E8"/>
<path d="M144.13 10.1469C143.237 6.38523 140.535 3.45483 137.106 1.75065C131.743 -0.909545 122.682 -1.11737 119.939 5.26294C114.577 7.13339 117.341 15.592 122.682 13.6591C122.745 13.6384 122.807 13.6176 122.869 13.5968C125.633 14.9477 129.499 15.4049 132.907 15.4465C134.175 18.5639 136.772 21.2241 140.535 19.707C144.151 18.2314 144.941 13.5553 144.13 10.1469Z" fill="#382717"/>
<path d="M95.5027 55.0991C94.7128 54.6834 93.8607 54.4133 92.9671 54.2679C92.1149 54.1224 91.0342 54.2471 90.6602 55.0576C90.3069 55.8681 90.9304 56.7202 91.5539 57.3022C94.4635 59.9831 98.2668 61.3755 101.987 62.7264C101.55 63.4537 102.174 63.1836 102.964 59.6713C101.363 59.2972 100.428 57.6762 99.2019 56.5955C97.8926 55.4524 96.7289 53.8729 95.0038 53.582C94.9415 53.8106 94.8583 54.0184 94.796 54.2471C95.0454 54.5172 95.274 54.8082 95.5027 55.0991Z" fill="#C8AE9A"/>
<path d="M103.484 59.7983C102.009 59.0708 100.013 58.4058 99.2238 59.4033C98.4132 60.4425 99.7849 62.0844 101.032 63.2066C103.754 65.6799 106.498 68.1321 109.22 70.6054C114.541 75.4061 119.986 80.3109 126.45 83.6153C129.088 84.9662 132.247 86.0677 134.492 85.0909C135.885 84.4882 136.633 83.1996 137.236 81.9111C140.25 75.5516 132.04 73.702 126.075 70.7924C118.552 67.1346 111.008 63.456 103.484 59.7983Z" fill="#736357"/>
<path d="M150.246 46.5541C150.267 44.559 150.121 42.46 149.144 40.7766C145.674 34.8327 137.548 44.3304 135.761 47.8218C132.123 54.9296 129.255 70.2881 127.302 77.5413C126.907 78.9961 126.512 80.5339 126.907 81.9472C127.592 84.4411 132.436 87.1637 134.742 85.605C136.799 84.2126 144.094 70.3504 145.071 68.0227C147.898 61.206 150.121 53.9735 150.246 46.5541Z" fill="#736357"/>
<path d="M128.136 31.0778C128.426 31.0778 128.738 31.0778 128.987 30.9115C129.236 30.766 129.402 30.4128 129.236 30.1633C128.343 30.1426 127.47 30.1426 126.577 30.1218C126.307 30.1218 125.994 30.1218 125.766 30.288C124.436 31.2025 127.866 31.0778 128.136 31.0778Z" fill="#382717"/>
<defs>
<linearGradient id="paint0_linear_111_1390" x1="0.43118" y1="217.095" x2="99.1496" y2="225.866" gradientUnits="userSpaceOnUse">
<stop stop-color="#4D4D4D"/>
<stop offset="1"/>
</linearGradient>
<linearGradient id="paint1_linear_111_1390" x1="0.43704" y1="217.095" x2="99.1555" y2="225.866" gradientUnits="userSpaceOnUse">
<stop/>
<stop offset="1"/>
</linearGradient>
<linearGradient id="paint2_linear_111_1390" x1="105.677" y1="214.009" x2="199.704" y2="220.503" gradientUnits="userSpaceOnUse">
<stop stop-color="#4D4D4D"/>
<stop offset="1"/>
</linearGradient>
<linearGradient id="paint3_linear_111_1390" x1="105.683" y1="214.009" x2="199.711" y2="220.503" gradientUnits="userSpaceOnUse">
<stop/>
<stop offset="1"/>
</linearGradient>
</defs>
</svg>
