<svg width="30" height="30" viewBox="0 0 30 30" fill="none" xmlns="http://www.w3.org/2000/svg">
<rect width="30" height="30" fill="#FF0000" fill-opacity="0.01"/>
<path fill-rule="evenodd" clip-rule="evenodd" d="M26.3194 15.8364L26.6914 16.3324C27.2567 17.091 27.0141 18.1643 26.1715 18.6189L25.6208 18.9149C25.0262 19.2415 24.7036 19.9015 24.8276 20.5627L24.9422 21.1654C25.1155 22.088 24.4223 22.9532 23.465 23.0066L22.8397 23.0412C22.1558 23.0799 21.5705 23.5412 21.3918 24.1878L21.2278 24.7811C20.9758 25.689 19.9692 26.1757 19.0813 25.8157L18.5014 25.5824C17.8721 25.3237 17.1428 25.4944 16.6922 25.9997L16.2802 26.461C15.6509 27.1716 14.531 27.1809 13.891 26.481L13.4751 26.0237C13.0138 25.5237 12.2845 25.3637 11.6552 25.6304L11.0806 25.873C10.198 26.2423 9.18737 25.7757 8.91939 24.8718L8.74607 24.2785C8.55808 23.6319 7.96746 23.1799 7.28351 23.1506L6.65822 23.1266C5.69696 23.0879 4.99301 22.232 5.15167 21.304L5.25566 20.6961C5.36898 20.0361 5.04234 19.3748 4.43705 19.0589L3.88243 18.7669C3.03449 18.3256 2.77718 17.2563 3.3318 16.4884L3.69311 15.9884C4.08908 15.4431 4.07975 14.7098 3.67844 14.1659L3.30647 13.6699C2.74118 12.9113 2.98383 11.8381 3.8211 11.3808L4.37172 11.0848C4.96635 10.7595 5.28899 10.0982 5.16633 9.4369L5.05167 8.83428C4.87835 7.91168 5.57164 7.04641 6.5289 6.99308L7.15285 6.95841C7.83814 6.91975 8.42209 6.45845 8.60075 5.81183L8.76474 5.21854C9.01672 4.31061 10.0233 3.82398 10.9112 4.18395L11.4912 4.41727C12.1205 4.67458 12.8498 4.50526 13.3004 3.99996L13.7124 3.53733C14.3417 2.82805 15.4629 2.81872 16.1069 3.52267L16.5228 3.97997C16.9841 4.47993 17.7134 4.63992 18.3427 4.37327L18.9173 4.13062C19.7999 3.76132 20.8105 4.22795 21.0785 5.13188L21.2518 5.72517C21.4398 6.37179 22.0304 6.82376 22.7144 6.85309L23.3397 6.87709C24.3009 6.91575 25.0049 7.77169 24.8462 8.69962L24.7422 9.30758C24.6289 9.96753 24.9555 10.6288 25.5608 10.9448L26.1155 11.2368C26.9634 11.6781 27.2207 12.7473 26.6661 13.5153L26.3048 14.0152C25.9088 14.5592 25.9181 15.2925 26.3194 15.8364ZM16.2362 20.0641C16.9161 19.8801 17.5014 19.5202 17.9521 18.9855C19.196 17.5043 18.72 15.3311 16.9695 14.3645C16.4977 14.1083 16.0038 13.9089 15.5066 13.7082C15.4192 13.6729 15.3317 13.6376 15.2443 13.6019C14.907 13.4659 14.5803 13.3059 14.2977 13.082C13.7324 12.6447 13.8417 11.93 14.5003 11.6487C14.6843 11.5701 14.883 11.5407 15.0816 11.5314C15.8442 11.4927 16.5682 11.6287 17.2574 11.954C17.6041 12.1194 17.7187 12.066 17.8334 11.7181C17.9298 11.4308 18.0142 11.138 18.0983 10.8457C18.1224 10.7622 18.1464 10.6788 18.1707 10.5955C18.2454 10.3422 18.1507 10.1768 17.9081 10.0702C17.4668 9.87953 17.0108 9.73954 16.5348 9.66621C15.9149 9.57501 15.9148 9.56899 15.9097 8.97248L15.9095 8.95693C15.9069 8.52716 15.9056 8.31085 15.7967 8.20198C15.6865 8.09166 15.4658 8.09166 15.0216 8.09166C14.9785 8.09166 14.9354 8.09107 14.8925 8.09048C14.8067 8.08929 14.7211 8.08811 14.635 8.09166C14.2177 8.101 14.1483 8.17299 14.1403 8.58229V9.13159C14.1351 9.66634 14.135 9.66637 13.6309 9.84609C13.6222 9.84918 13.6134 9.85233 13.6044 9.85553C12.3245 10.3128 11.5312 11.1674 11.4472 12.538C11.3725 13.7526 12.0165 14.5685 13.0338 15.1671C13.4667 15.4234 13.9337 15.6071 14.4008 15.7909C14.6069 15.872 14.813 15.9531 15.0163 16.0404C15.2736 16.1511 15.5216 16.2831 15.7402 16.4577C16.3802 16.9737 16.2615 17.8336 15.5029 18.1589C15.0963 18.3336 14.6643 18.3776 14.2283 18.3242C13.5497 18.2416 12.8991 18.0669 12.2898 17.7563C11.9325 17.5763 11.8285 17.6256 11.7045 18.0043C11.622 18.2538 11.5504 18.5081 11.479 18.7616C11.4569 18.8399 11.4349 18.9182 11.4125 18.9962C11.2886 19.4442 11.3325 19.5508 11.7645 19.7548C12.3151 20.0175 12.9044 20.1534 13.5097 20.2454C13.9804 20.3188 13.995 20.3374 14.0004 20.8187C14.0004 21.032 14.0004 21.2507 14.0057 21.4693C14.011 21.7413 14.1443 21.9013 14.4323 21.9067C14.759 21.916 15.0869 21.916 15.4136 21.9067C15.6816 21.9013 15.8202 21.76 15.8202 21.4933C15.8202 21.3943 15.8218 21.2949 15.8235 21.1953C15.8267 20.996 15.83 20.7962 15.8202 20.5987C15.8042 20.2974 15.9389 20.1414 16.2362 20.0641Z" fill="black"/>
<mask id="mask0_45_1337" style="mask-type:luminance" maskUnits="userSpaceOnUse" x="3" y="3" width="24" height="24">
<path fill-rule="evenodd" clip-rule="evenodd" d="M26.3194 15.8364L26.6914 16.3324C27.2567 17.091 27.0141 18.1643 26.1715 18.6189L25.6208 18.9149C25.0262 19.2415 24.7036 19.9015 24.8276 20.5627L24.9422 21.1654C25.1155 22.088 24.4223 22.9532 23.465 23.0066L22.8397 23.0412C22.1558 23.0799 21.5705 23.5412 21.3918 24.1878L21.2278 24.7811C20.9758 25.689 19.9692 26.1757 19.0813 25.8157L18.5014 25.5824C17.8721 25.3237 17.1428 25.4944 16.6922 25.9997L16.2802 26.461C15.6509 27.1716 14.531 27.1809 13.891 26.481L13.4751 26.0237C13.0138 25.5237 12.2845 25.3637 11.6552 25.6304L11.0806 25.873C10.198 26.2423 9.18737 25.7757 8.91939 24.8718L8.74607 24.2785C8.55808 23.6319 7.96746 23.1799 7.28351 23.1506L6.65822 23.1266C5.69696 23.0879 4.99301 22.232 5.15167 21.304L5.25566 20.6961C5.36898 20.0361 5.04234 19.3748 4.43705 19.0589L3.88243 18.7669C3.03449 18.3256 2.77718 17.2563 3.3318 16.4884L3.69311 15.9884C4.08908 15.4431 4.07975 14.7098 3.67844 14.1659L3.30647 13.6699C2.74118 12.9113 2.98383 11.8381 3.8211 11.3808L4.37172 11.0848C4.96635 10.7595 5.28899 10.0982 5.16633 9.4369L5.05167 8.83428C4.87835 7.91168 5.57164 7.04641 6.5289 6.99308L7.15285 6.95841C7.83814 6.91975 8.42209 6.45845 8.60075 5.81183L8.76474 5.21854C9.01672 4.31061 10.0233 3.82398 10.9112 4.18395L11.4912 4.41727C12.1205 4.67458 12.8498 4.50526 13.3004 3.99996L13.7124 3.53733C14.3417 2.82805 15.4629 2.81872 16.1069 3.52267L16.5228 3.97997C16.9841 4.47993 17.7134 4.63992 18.3427 4.37327L18.9173 4.13062C19.7999 3.76132 20.8105 4.22795 21.0785 5.13188L21.2518 5.72517C21.4398 6.37179 22.0304 6.82376 22.7144 6.85309L23.3397 6.87709C24.3009 6.91575 25.0049 7.77169 24.8462 8.69962L24.7422 9.30758C24.6289 9.96753 24.9555 10.6288 25.5608 10.9448L26.1155 11.2368C26.9634 11.6781 27.2207 12.7473 26.6661 13.5153L26.3048 14.0152C25.9088 14.5592 25.9181 15.2925 26.3194 15.8364ZM16.2362 20.0641C16.9161 19.8801 17.5014 19.5202 17.9521 18.9855C19.196 17.5043 18.72 15.3311 16.9695 14.3645C16.4977 14.1083 16.0038 13.9089 15.5066 13.7082C15.4192 13.6729 15.3317 13.6376 15.2443 13.6019C14.907 13.4659 14.5803 13.3059 14.2977 13.082C13.7324 12.6447 13.8417 11.93 14.5003 11.6487C14.6843 11.5701 14.883 11.5407 15.0816 11.5314C15.8442 11.4927 16.5682 11.6287 17.2574 11.954C17.6041 12.1194 17.7187 12.066 17.8334 11.7181C17.9298 11.4308 18.0142 11.138 18.0983 10.8457C18.1224 10.7622 18.1464 10.6788 18.1707 10.5955C18.2454 10.3422 18.1507 10.1768 17.9081 10.0702C17.4668 9.87953 17.0108 9.73954 16.5348 9.66621C15.9149 9.57501 15.9148 9.56899 15.9097 8.97248L15.9095 8.95693C15.9069 8.52716 15.9056 8.31085 15.7967 8.20198C15.6865 8.09166 15.4658 8.09166 15.0216 8.09166C14.9785 8.09166 14.9354 8.09107 14.8925 8.09048C14.8067 8.08929 14.7211 8.08811 14.635 8.09166C14.2177 8.101 14.1483 8.17299 14.1403 8.58229V9.13159C14.1351 9.66634 14.135 9.66637 13.6309 9.84609C13.6222 9.84918 13.6134 9.85233 13.6044 9.85553C12.3245 10.3128 11.5312 11.1674 11.4472 12.538C11.3725 13.7526 12.0165 14.5685 13.0338 15.1671C13.4667 15.4234 13.9337 15.6071 14.4008 15.7909C14.6069 15.872 14.813 15.9531 15.0163 16.0404C15.2736 16.1511 15.5216 16.2831 15.7402 16.4577C16.3802 16.9737 16.2615 17.8336 15.5029 18.1589C15.0963 18.3336 14.6643 18.3776 14.2283 18.3242C13.5497 18.2416 12.8991 18.0669 12.2898 17.7563C11.9325 17.5763 11.8285 17.6256 11.7045 18.0043C11.622 18.2538 11.5504 18.5081 11.479 18.7616C11.4569 18.8399 11.4349 18.9182 11.4125 18.9962C11.2886 19.4442 11.3325 19.5508 11.7645 19.7548C12.3151 20.0175 12.9044 20.1534 13.5097 20.2454C13.9804 20.3188 13.995 20.3374 14.0004 20.8187C14.0004 21.032 14.0004 21.2507 14.0057 21.4693C14.011 21.7413 14.1443 21.9013 14.4323 21.9067C14.759 21.916 15.0869 21.916 15.4136 21.9067C15.6816 21.9013 15.8202 21.76 15.8202 21.4933C15.8202 21.3943 15.8218 21.2949 15.8235 21.1953C15.8267 20.996 15.83 20.7962 15.8202 20.5987C15.8042 20.2974 15.9389 20.1414 16.2362 20.0641Z" fill="white"/>
</mask>
<g mask="url(#mask0_45_1337)">
<rect width="30" height="30" fill="#C1C0C9"/>
</g>
</svg>
