<svg width="50" height="24" viewBox="0 0 50 24" fill="none" xmlns="http://www.w3.org/2000/svg">
<path d="M49.1083 10.5658C49.0383 9.72186 48.9598 8.76675 48.8065 7.94258C48.7 7.36615 48.4659 6.59858 47.6745 6.59858C47.5952 6.59858 47.5158 6.60639 47.4374 6.6145C47.3884 6.61915 47.3395 6.62576 47.2593 6.62726C47.2577 6.62726 47.232 6.60234 47.1994 6.50759C46.967 5.84198 45.992 5.01405 44.7419 4.00143C44.4339 3.75294 44.0653 3.45369 43.9083 3.29933C43.9659 2.90053 43.9574 2.41074 43.6797 2.07321C43.5508 1.9157 43.3081 1.72756 42.8898 1.72756C42.8284 1.72756 42.7631 1.73131 42.6177 1.74423C42.3159 1.74423 41.7111 1.6202 40.8737 1.44708C38.7146 1.00399 34.6956 0.178312 28.6694 0.0484316C19.8949 -0.125292 12.9998 6.20669 12.7156 6.47336L12.5123 6.66225C12.152 6.83642 11.014 7.25279 7.53559 7.93657C2.60195 8.90804 1.66081 10.4798 1.48303 11.0876C1.08919 11.3816 0.451351 12.0828 0.3503 12.9077C0.269069 13.5655 0.0851351 13.8346 0.0851351 13.8339L0 13.9436V18.5869L0.00960961 18.6716C0.277027 19.9046 1.55496 20.557 3.70511 20.557C4.39084 20.557 4.90526 20.487 4.88529 20.487C4.91517 20.4854 5.18033 20.4809 5.63979 20.4714C5.59279 20.3415 5.55 20.2101 5.51306 20.0756C5.47733 19.9459 5.44459 19.8152 5.41937 19.6815C5.35871 19.3664 5.32462 19.0423 5.32462 18.7095C5.32462 15.8561 7.6461 13.5345 10.4995 13.5345C13.353 13.5345 15.6746 15.8561 15.6746 18.7095C15.6746 18.9677 15.6494 19.218 15.6132 19.466C15.5934 19.6005 15.5704 19.7342 15.5401 19.8648C15.509 20.0001 15.4764 20.1339 15.4351 20.2652C21.8973 20.1268 30.1201 19.9441 36.4886 19.784C36.4605 19.6534 36.4426 19.5211 36.4248 19.3873C36.4069 19.2552 36.3967 19.1231 36.3898 18.9894C36.3851 18.896 36.3758 18.8044 36.3758 18.7095C36.3758 15.8561 38.6974 13.5345 41.5508 13.5345C44.3638 13.5345 46.6559 15.7923 46.7197 18.5914C46.7197 18.6303 46.7258 18.6698 46.7258 18.7095C46.7258 18.8098 46.7165 18.9077 46.7102 19.0073C46.7024 19.1487 46.6884 19.2894 46.6698 19.4279C47.8857 19.2273 48.8001 18.5866 49.3296 17.5502C50.2353 15.7783 49.7736 13.3791 49.4485 12.8696C49.273 12.5939 49.1859 11.5163 49.1083 10.5658Z" fill="#242E42"/>
<path d="M6.48341 20.4529C7.15788 22.0032 8.70082 23.0877 10.4992 23.0877C12.3621 23.0877 13.9489 21.9223 14.5818 20.2834C14.6319 20.1528 14.6766 20.019 14.7148 19.8822C14.7513 19.7515 14.7816 19.6178 14.8065 19.4825C14.8508 19.2314 14.8788 18.9732 14.8788 18.7091C14.8788 16.2903 12.9187 14.3301 10.4999 14.3301C8.08115 14.3301 6.12109 16.2903 6.12109 18.7091C6.12109 19.0371 6.15998 19.3565 6.22875 19.6645C6.25788 19.7982 6.29287 19.9296 6.33521 20.0579C6.37845 20.1933 6.42785 20.3238 6.48341 20.4529Z" fill="#242E42"/>
<path d="M37.303 19.7622C37.7757 21.6701 39.4957 23.0874 41.5497 23.0874C43.6972 23.0874 45.4801 21.5395 45.8532 19.5C45.8772 19.3679 45.8958 19.2348 45.909 19.0988C45.9207 18.9698 45.9286 18.8407 45.9286 18.7086C45.9286 18.7054 45.9286 18.7023 45.9286 18.6984C45.9239 16.2851 43.9646 14.3296 41.5497 14.3296C39.1317 14.3296 37.1709 16.2898 37.1709 18.7086C37.1709 18.7964 37.1795 18.8818 37.1841 18.9689C37.1919 19.1035 37.2051 19.2354 37.2253 19.3662C37.2455 19.5002 37.2719 19.6323 37.303 19.7622Z" fill="#242E42"/>
</svg>
